<svg xmlns="http://www.w3.org/2000/svg" width="1185.997" height="320" viewBox="0 0 1185.997 320"><g transform="translate(-451.003 -687)"><path d="M806.249-830.267a8.217,8.217,0,0,1-9.855-6.51,8.385,8.385,0,0,1,6.306-10.061c11.05-2.167,18.932-7.692,24.069-14.99,6.308-8.677,9.066-19.92,9.066-31.557a55.469,55.469,0,0,0-20.114-42.8c-12.437-10.651-30.375-17.161-52.664-17.161H690.265v248.924h50.5a39.683,39.683,0,0,0,5.123-.2c15.589-.591,26.23-4.933,32.741-11.046,6.116-5.722,8.685-13.611,8.685-21.894h0v-1.974a31.1,31.1,0,0,0-10.057-21.5c-6.117-5.918-15.589-11.243-29.792-14.993a8.614,8.614,0,0,1-6.116-10.452A8.665,8.665,0,0,1,751.81-792.4c17.158,4.733,29.186,11.441,37.082,19.132a48.179,48.179,0,0,1,15.193,32.94v2.762h0c0,12.622-4.145,24.853-13.807,34.122-9.282,8.68-23.477,14.793-43.6,15.779H673.305V-970.311h8.481c3.75,0,18.741,0,40.635.2h40.636c26.434,0,48.124,8.087,63.508,20.909a72.288,72.288,0,0,1,26.039,55.82c0,14.793-3.547,29.784-12.23,41.618-7.489,10.257-18.539,18.146-34.125,21.5h0" transform="translate(-222.302 1657.311)" fill="#168a81"/><path d="M814.05-864.513a8.156,8.156,0,0,1-11.034,4.338,8.392,8.392,0,0,1-4.349-11.045,14.751,14.751,0,0,0,.788-4.733,23.076,23.076,0,0,0-2.949-10.848,18.267,18.267,0,0,0-9.08-8.484,26.558,26.558,0,0,0-11.239-2.168,41.362,41.362,0,0,0-10.064,1.38,32.933,32.933,0,0,0-17.755,11.44,31.01,31.01,0,0,0-6.5,18.935,39.6,39.6,0,0,0,.986,8.284,44.719,44.719,0,0,0,11.837,19.923c6.509,6.51,15.779,12.227,28.8,17.161,26.23,9.86,46.344,21.1,60.355,35.107,14.393,14.793,21.894,32.152,21.894,53.652,0,12.623-1.386,23.865-4.933,33.531-3.75,10.259-9.865,18.344-19.136,23.669a8.623,8.623,0,0,1-11.442-3.157,8.617,8.617,0,0,1,3.166-11.636c5.518-2.959,9.268-8.087,11.634-14.793,2.759-7.5,3.941-16.763,3.941-27.613,0-16.766-5.913-30.378-17.152-41.818-12.04-12.031-30.184-22.091-54.253-31.163-15.385-5.721-26.624-12.822-34.71-20.909a58.831,58.831,0,0,1-16.173-27.612A46.485,46.485,0,0,1,724.9-865.7a46.552,46.552,0,0,1,10.26-29.193,49.356,49.356,0,0,1,26.624-17.552,56.433,56.433,0,0,1,14.407-1.777c6.9,0,13.019,1.183,17.94,3.551a35.985,35.985,0,0,1,17.164,15.582,39.559,39.559,0,0,1,4.933,19.135,28.763,28.763,0,0,1-2.175,11.441h0" transform="translate(-235.433 1643.035)" fill="#fff"/><path d="M70.914-156.992c-29.436,0-55.081,16.725-55.081,45.046S35.68-72.7,67.123-65.116C89.869-59.764,97.9-52.182,97.9-39.248c0,11.819-11.15,19.4-25.2,19.4-15.61,0-28.544-8.7-31.889-25.645H9.366c2.9,32.335,26.983,48.614,63.778,48.614,30.328,0,56.865-16.5,56.865-45.492,0-24.753-15.164-40.363-49.06-48.168-24.53-5.8-32.781-12.265-32.781-25.2,0-12.488,9.366-18.286,21.631-18.286,16.056,0,24.753,9.812,26.537,25.422h31.443C124.434-136.03,107.709-156.992,70.914-156.992ZM257.342-61.771c0-32.335-19.178-59.987-55.527-59.987S141.6-95.221,141.6-58.872c0,41.7,25.2,61.994,57.757,61.994,27.875,0,50.175-14.049,56.2-41.7H224.784c-2.007,12.711-11.6,20.07-24.753,20.07-14.272,0-25.422-7.805-27.429-32.781H256.9A91.593,91.593,0,0,0,257.342-61.771Zm-56.865-38.356c14.718,0,23.192,10.035,25.2,28.767H173.494C176.17-90.984,186.205-100.127,200.477-100.127Zm148.518-21.631c-12.042,0-24.084,2.9-30.774,8.251l-8.92,12.934V-163.9H278.527V0H309.3V-15.833l7.8,12.265c6.021,4.237,18.063,6.69,27.875,6.69,30.551,0,56.865-21.854,56.865-64.67C401.846-96.559,382.222-121.758,348.995-121.758ZM338.96-18.509c-14.272,0-29.659-9.589-29.659-36.572v-5.575c0-28.99,13.826-39.471,30.774-39.471,18.286,0,29.882,16.279,29.882,40.586C369.957-32.112,356.8-18.509,338.96-18.509ZM451.8-163.9H421.024V-38.133c0,7.8,0,13.38.446,18.732.669,15.387,10.258,20.962,25.422,20.962A168.949,168.949,0,0,0,465.847.669V-20.516c-10.481.669-13.157-1.338-13.826-7.359C451.8-31,451.8-34.119,451.8-38.8ZM556.162,0h30.1a205.039,205.039,0,0,1-2.23-30.105V-68.461c0-6.467-.223-12.711-.669-18.286-1.784-20.516-14.272-35.011-47.5-35.011-28.321,0-49.952,15.164-50.844,41.924l29.882-.223c.892-12.934,7.582-20.07,19.847-20.07,12.042,0,17.394,6.021,18.286,14.272a97,97,0,0,1,.446,11.15v2.453H545.9c-43.039,0-65.339,14.718-65.339,40.809,0,22.523,17.617,34.565,38.133,34.565,11.15,0,21.185-2.23,29.436-7.805l5.8-12.711ZM530.517-18.509c-10.927,0-18.063-4.906-18.063-15.387,0-15.61,16.5-21.185,41.032-19.4v9.589C553.486-27.206,543.005-18.509,530.517-18.509ZM627.968-162.79c-10.035,0-16.948,6.69-16.948,16.279,0,9.812,6.913,16.279,16.948,16.279s16.948-6.467,16.948-16.279C644.916-156.1,638-162.79,627.968-162.79ZM643.355,0V-118.636H612.581V0Zm70.914-121.758c-28.321,0-47.053,13.826-47.053,36.572,0,20.516,15.164,30.1,37.241,35.68,20.516,5.129,28.321,10.258,28.321,19.4,0,8.7-7.582,12.934-17.394,12.934-10.7,0-19.624-6.021-22.077-18.955H662.533c3.345,26.76,23.638,39.248,52.405,39.248,27.206,0,48.837-11.6,48.837-35.457,0-21.854-14.272-31.666-38.579-37.91-19.624-4.906-26.983-9.589-26.983-18.509,0-7.359,4.906-12.711,14.049-12.711,10.258,0,16.279,6.244,18.286,17.171h30.774C758.646-105.925,742.59-121.758,714.269-121.758Zm176.17,59.987c0-32.335-19.178-59.987-55.527-59.987S774.7-95.221,774.7-58.872c0,41.7,25.2,61.994,57.757,61.994,27.875,0,50.175-14.049,56.2-41.7H857.881c-2.007,12.711-11.6,20.07-24.753,20.07-14.272,0-25.422-7.805-27.429-32.781h84.294A91.6,91.6,0,0,0,890.439-61.771Zm-56.865-38.356c14.718,0,23.192,10.035,25.2,28.767H806.591C809.267-90.984,819.3-100.127,833.574-100.127Z" transform="translate(684 956)" fill="#fff"/><text transform="translate(1582 956)" fill="#fff" font-size="223" font-family="Aileron-Bold, Aileron" font-weight="700"><tspan x="0" y="0">.</tspan></text></g></svg>