<svg xmlns="http://www.w3.org/2000/svg" width="1185.997" height="332" viewBox="0 0 1185.997 332"><g transform="translate(-451.003 -675)"><path d="M806.249-830.267a8.217,8.217,0,0,1-9.855-6.51,8.385,8.385,0,0,1,6.306-10.061c11.05-2.167,18.932-7.692,24.069-14.99,6.308-8.677,9.066-19.92,9.066-31.557a55.469,55.469,0,0,0-20.114-42.8c-12.437-10.651-30.375-17.161-52.664-17.161H690.265v248.924h50.5a39.683,39.683,0,0,0,5.123-.2c15.589-.591,26.23-4.933,32.741-11.046,6.116-5.722,8.685-13.611,8.685-21.894h0v-1.974a31.1,31.1,0,0,0-10.057-21.5c-6.117-5.918-15.589-11.243-29.792-14.993a8.614,8.614,0,0,1-6.116-10.452A8.665,8.665,0,0,1,751.81-792.4c17.158,4.733,29.186,11.441,37.082,19.132a48.179,48.179,0,0,1,15.193,32.94v2.762h0c0,12.622-4.145,24.853-13.807,34.122-9.282,8.68-23.477,14.793-43.6,15.779H673.305V-970.311h8.481c3.75,0,18.741,0,40.635.2h40.636c26.434,0,48.124,8.087,63.508,20.909a72.288,72.288,0,0,1,26.039,55.82c0,14.793-3.547,29.784-12.23,41.618-7.489,10.257-18.539,18.146-34.125,21.5h0" transform="translate(-217.302 1650.311)" fill="#168a81" stroke="#168a81" stroke-width="10"/><path d="M814.05-864.513a8.156,8.156,0,0,1-11.034,4.338,8.392,8.392,0,0,1-4.349-11.045,14.751,14.751,0,0,0,.788-4.733,23.076,23.076,0,0,0-2.949-10.848,18.267,18.267,0,0,0-9.08-8.484,26.558,26.558,0,0,0-11.239-2.168,41.362,41.362,0,0,0-10.064,1.38,32.933,32.933,0,0,0-17.755,11.44,31.01,31.01,0,0,0-6.5,18.935,39.6,39.6,0,0,0,.986,8.284,44.719,44.719,0,0,0,11.837,19.923c6.509,6.51,15.779,12.227,28.8,17.161,26.23,9.86,46.344,21.1,60.355,35.107,14.393,14.793,21.894,32.152,21.894,53.652,0,12.623-1.386,23.865-4.933,33.531-3.75,10.259-9.865,18.344-19.136,23.669a8.623,8.623,0,0,1-11.442-3.157,8.617,8.617,0,0,1,3.166-11.636c5.518-2.959,9.268-8.087,11.634-14.793,2.759-7.5,3.941-16.763,3.941-27.613,0-16.766-5.913-30.378-17.152-41.818-12.04-12.031-30.184-22.091-54.253-31.163-15.385-5.721-26.624-12.822-34.71-20.909a58.831,58.831,0,0,1-16.173-27.612A46.485,46.485,0,0,1,724.9-865.7a46.552,46.552,0,0,1,10.26-29.193,49.356,49.356,0,0,1,26.624-17.552,56.433,56.433,0,0,1,14.407-1.777c6.9,0,13.019,1.183,17.94,3.551a35.985,35.985,0,0,1,17.164,15.582,39.559,39.559,0,0,1,4.933,19.135,28.763,28.763,0,0,1-2.175,11.441h0" transform="translate(-235.433 1643.035)" fill="#1f344a" stroke="#1f344a" stroke-width="10"/><text transform="translate(684 956)" fill="#1f344a" font-size="223" font-family="Aileron-Bold, Aileron" font-weight="700"><tspan x="0" y="0">Seblaise</tspan><tspan y="0" fill="#168a81">.</tspan></text></g></svg>